<?xml version="1.0" encoding="iso-8859-1"?>
<!-- Uploaded to: SVG Repo, www.svgrepo.com, Generator: SVG Repo Mixer Tools -->
<svg fill="#000000" height="800px" width="800px" version="1.1" id="Layer_1" xmlns="http://www.w3.org/2000/svg" xmlns:xlink="http://www.w3.org/1999/xlink" 
	 viewBox="0 0 512.005 512.005" xml:space="preserve">
<g>
	<g>
		<g>
			<path d="M234.669,341.333v-192c0-11.782-9.551-21.333-21.333-21.333h-192c-11.782,0-21.333,9.551-21.333,21.333v192
				c0,11.782,9.551,21.333,21.333,21.333h192C225.118,362.666,234.669,353.115,234.669,341.333z M192.003,319.999H42.669V170.666
				h149.333V319.999z"/>
			<path d="M85.336,234.666h64c11.782,0,21.333-9.551,21.333-21.333c0-11.782-9.551-21.333-21.333-21.333h-64
				c-11.782,0-21.333,9.551-21.333,21.333C64.003,225.115,73.554,234.666,85.336,234.666z"/>
			<path d="M85.336,298.666h42.667c11.782,0,21.333-9.551,21.333-21.333c0-11.782-9.551-21.333-21.333-21.333H85.336
				c-11.782,0-21.333,9.551-21.333,21.333C64.003,289.115,73.554,298.666,85.336,298.666z"/>
			<path d="M362.669,234.666h64c11.782,0,21.333-9.551,21.333-21.333c0-11.782-9.551-21.333-21.333-21.333h-64
				c-11.782,0-21.333,9.551-21.333,21.333C341.336,225.115,350.887,234.666,362.669,234.666z"/>
			<path d="M362.669,298.666h42.667c11.782,0,21.333-9.551,21.333-21.333c0-11.782-9.551-21.333-21.333-21.333h-42.667
				c-11.782,0-21.333,9.551-21.333,21.333C341.336,289.115,350.887,298.666,362.669,298.666z"/>
			<path d="M490.669,127.999h-192c-11.782,0-21.333,9.551-21.333,21.333v192c0,11.782,9.551,21.333,21.333,21.333h192
				c11.782,0,21.333-9.551,21.333-21.333v-192C512.003,137.551,502.451,127.999,490.669,127.999z M469.336,319.999H320.003V170.666
				h149.333V319.999z"/>
			<path d="M142.835,100.666C184.26,60.593,276.444,53.384,335.67,78.957l-6.75,2.249c-11.178,3.724-17.22,15.805-13.496,26.983
				c3.724,11.178,15.805,17.22,26.983,13.496l48.341-16.107c0.469-0.156,0.926-0.333,1.377-0.518
				c0.057-0.023,0.113-0.048,0.17-0.072c0.607-0.255,1.197-0.535,1.768-0.84c0.021-0.011,0.041-0.023,0.062-0.034
				c3.213-1.727,5.848-4.208,7.756-7.143c0.024-0.036,0.048-0.072,0.072-0.109c0.346-0.539,0.666-1.094,0.962-1.662
				c0.034-0.064,0.069-0.128,0.102-0.193c0.283-0.557,0.54-1.128,0.774-1.708c0.025-0.061,0.051-0.121,0.075-0.182
				c0.237-0.605,0.446-1.222,0.628-1.848c0.007-0.024,0.015-0.047,0.022-0.071c0.912-3.182,1.089-6.602,0.411-10.005
				c-0.015-0.075-0.029-0.149-0.044-0.223c-0.118-0.561-0.26-1.121-0.426-1.679c-0.042-0.142-0.085-0.282-0.129-0.423
				c-0.029-0.092-0.054-0.185-0.085-0.277l-21.333-64c-3.726-11.177-15.807-17.218-26.985-13.492
				c-11.177,3.726-17.218,15.807-13.492,26.985l2.958,8.873C270.568,8.148,165.707,19.177,113.17,70
				c-8.468,8.192-8.692,21.698-0.501,30.166S134.367,108.858,142.835,100.666z"/>
			<path d="M369.17,411.333c-41.425,40.072-133.607,47.282-192.833,21.709l22.412-7.471c11.177-3.726,17.218-15.807,13.492-26.985
				s-15.807-17.218-26.985-13.492l-64,21.333c-0.427,0.142-0.844,0.301-1.255,0.467c-0.142,0.057-0.283,0.117-0.424,0.178
				c-0.522,0.224-1.031,0.464-1.526,0.725c-0.101,0.053-0.2,0.108-0.3,0.163c-0.54,0.295-1.065,0.611-1.572,0.948
				c-0.054,0.036-0.107,0.073-0.16,0.109c-0.554,0.376-1.087,0.775-1.598,1.197c-0.021,0.017-0.042,0.035-0.063,0.053
				c-0.542,0.451-1.059,0.927-1.549,1.426c-0.008,0.008-0.017,0.015-0.025,0.023c-0.008,0.008-0.015,0.018-0.023,0.026
				c-0.478,0.489-0.93,0.999-1.357,1.529c-0.041,0.051-0.082,0.101-0.123,0.152c-0.383,0.484-0.743,0.985-1.081,1.499
				c-0.064,0.097-0.13,0.194-0.193,0.292c-0.304,0.478-0.585,0.968-0.85,1.468c-0.067,0.126-0.136,0.251-0.201,0.378
				c-0.25,0.495-0.476,1.002-0.687,1.515c-0.05,0.123-0.104,0.245-0.152,0.368c-0.212,0.545-0.398,1.1-0.565,1.662
				c-0.025,0.084-0.053,0.166-0.076,0.25c-0.174,0.613-0.319,1.236-0.438,1.865c-0.005,0.028-0.012,0.056-0.017,0.084
				c-0.365,1.971-0.451,4.009-0.237,6.059c0.002,0.02,0.004,0.04,0.006,0.06c0.067,0.619,0.162,1.239,0.285,1.859
				c0.017,0.087,0.033,0.173,0.051,0.259c0.117,0.555,0.258,1.108,0.421,1.66c0.042,0.143,0.086,0.286,0.131,0.429
				c0.03,0.094,0.055,0.187,0.086,0.281l21.333,64c3.726,11.177,15.807,17.218,26.985,13.492s17.218-15.807,13.492-26.985
				l-2.96-8.88c74.823,28.81,179.683,17.781,232.221-33.041c8.468-8.192,8.692-21.697,0.5-30.166
				C391.144,403.365,377.638,403.141,369.17,411.333z"/>
		</g>
	</g>
</g>
</svg>